<svg xmlns="http://www.w3.org/2000/svg" width="288" height="511" viewBox="0 0 288 511" fill="none" preserveAspectRatio="none">
<path d="M0 33.6099C0 24.6665 0 20.1948 1.17706 16.5762C3.55176 9.27566 9.27566 3.55176 16.5762 1.17706C20.1948 0 24.6665 0 33.61 0H116.476C123.369 0 126.815 0 130.162 0.557732C133.133 1.05287 136.041 1.87391 138.832 3.00598C141.976 4.28118 144.913 6.08392 150.788 9.6894L160.981 15.9448C166.856 19.5502 169.793 21.353 172.938 22.6282C175.729 23.7603 178.636 24.5813 181.607 25.0764C184.954 25.6342 188.401 25.6342 195.294 25.6342H249.6C263.041 25.6342 269.762 25.6342 274.896 28.25C279.412 30.551 283.083 34.2225 285.384 38.7384C288 43.8723 288 50.5929 288 64.0342V472.6C288 486.041 288 492.762 285.384 497.896C283.083 502.412 279.412 506.083 274.896 508.384C269.762 511 263.041 511 249.6 511H38.4C24.9587 511 18.2381 511 13.1042 508.384C8.58834 506.083 4.9168 502.412 2.61584 497.896C0 492.762 0 486.041 0 472.6V33.6099Z" fill="#2453FF"/>
<path d="M0 33.6099C0 24.6665 0 20.1948 1.17706 16.5762C3.55176 9.27566 9.27566 3.55176 16.5762 1.17706C20.1948 0 24.6665 0 33.61 0H116.476C123.369 0 126.815 0 130.162 0.557732C133.133 1.05287 136.041 1.87391 138.832 3.00598C141.976 4.28118 144.913 6.08392 150.788 9.6894L160.981 15.9448C166.856 19.5502 169.793 21.353 172.938 22.6282C175.729 23.7603 178.636 24.5813 181.607 25.0764C184.954 25.6342 188.401 25.6342 195.294 25.6342H249.6C263.041 25.6342 269.762 25.6342 274.896 28.25C279.412 30.551 283.083 34.2225 285.384 38.7384C288 43.8723 288 50.5929 288 64.0342V472.6C288 486.041 288 492.762 285.384 497.896C283.083 502.412 279.412 506.083 274.896 508.384C269.762 511 263.041 511 249.6 511H38.4C24.9587 511 18.2381 511 13.1042 508.384C8.58834 506.083 4.9168 502.412 2.61584 497.896C0 492.762 0 486.041 0 472.6V33.6099Z" fill="url(#paint0_linear_1822_67657)" fill-opacity="0.2"/>
<defs>
<linearGradient id="paint0_linear_1822_67657" x1="505.291" y1="-50.6495" x2="573.851" y2="191.397" gradientUnits="userSpaceOnUse">
<stop offset="0" stop-color="#9EDFFF"/>
<stop offset="1" stop-color="#558EFF" stop-opacity="0"/>
</linearGradient>
</defs>
</svg>