<svg width="26" height="26" viewBox="0 0 26 26" fill="none" xmlns="http://www.w3.org/2000/svg">
<g filter="url(#filter0_b_1822_54160)">
<rect width="26" height="26" rx="13" fill="url(#paint0_linear_1822_54160)"/>
</g>
<path d="M15.6655 9.66702C15.6655 9.29883 15.964 9.00036 16.3322 9.00036C16.7003 9.00036 16.9988 9.29883 16.9988 9.66702C16.9988 10.0352 16.7003 10.3337 16.3322 10.3337C15.964 10.3337 15.6655 10.0352 15.6655 9.66702Z" fill="white"/>
<path fill-rule="evenodd" clip-rule="evenodd" d="M12.9988 9.83369C11.2499 9.83369 9.83215 11.2515 9.83215 13.0004C9.83215 14.7493 11.2499 16.167 12.9988 16.167C14.7477 16.167 16.1655 14.7493 16.1655 13.0004C16.1655 11.2515 14.7477 9.83369 12.9988 9.83369ZM10.8322 13.0004C10.8322 11.8037 11.8022 10.8337 12.9988 10.8337C14.1954 10.8337 15.1655 11.8037 15.1655 13.0004C15.1655 14.197 14.1954 15.167 12.9988 15.167C11.8022 15.167 10.8322 14.197 10.8322 13.0004Z" fill="white"/>
<path fill-rule="evenodd" clip-rule="evenodd" d="M16.5043 6.88903C14.1933 6.63074 11.8044 6.63074 9.49333 6.88903C8.15196 7.03895 7.06907 8.09562 6.91137 9.44398C6.63501 11.8068 6.63501 14.1939 6.91137 16.5567C7.06907 17.9051 8.15196 18.9618 9.49333 19.1117C11.8044 19.37 14.1933 19.37 16.5043 19.1117C17.8457 18.9618 18.9286 17.9051 19.0863 16.5567C19.3626 14.1939 19.3626 11.8068 19.0863 9.44398C18.9286 8.09562 17.8457 7.03895 16.5043 6.88903ZM9.60441 7.88285C11.8416 7.6328 14.156 7.6328 16.3933 7.88285C17.28 7.98195 17.9903 8.68169 18.0931 9.56014C18.3604 11.8458 18.3604 14.1549 18.0931 16.4406C17.9903 17.319 17.28 18.0188 16.3933 18.1179C14.156 18.3679 11.8416 18.3679 9.60441 18.1179C8.71767 18.0188 8.00734 17.319 7.9046 16.4406C7.63727 14.1549 7.63727 11.8458 7.9046 9.56014C8.00734 8.68169 8.71767 7.98195 9.60441 7.88285Z" fill="white"/>
<defs>
<filter id="filter0_b_1822_54160" x="-34.2495" y="-34.2495" width="94.4991" height="94.4991" filterUnits="userSpaceOnUse" color-interpolation-filters="sRGB">
<feFlood flood-opacity="0" result="BackgroundImageFix"/>
<feGaussianBlur in="BackgroundImageFix" stdDeviation="17.1248"/>
<feComposite in2="SourceAlpha" operator="in" result="effect1_backgroundBlur_1822_54160"/>
<feBlend mode="normal" in="SourceGraphic" in2="effect1_backgroundBlur_1822_54160" result="shape"/>
</filter>
<linearGradient id="paint0_linear_1822_54160" x1="22.2164" y1="1.74627" x2="1.74627" y2="24.1567" gradientUnits="userSpaceOnUse">
<stop offset="0.0343084" stop-color="#334FFF"/>
<stop offset="0.270833" stop-color="#C838F7"/>
<stop offset="0.510417" stop-color="#FF1F7A"/>
<stop offset="0.744792" stop-color="#FF8534"/>
<stop offset="1" stop-color="#FFBD28"/>
</linearGradient>
</defs>
</svg>
