<svg xmlns="http://www.w3.org/2000/svg" fill="none" viewBox="0 0 20 20" class="_countryFlag_mdqmt_115"><path fill="#D80027" d="M10 20c5.523 0 10-4.477 10-10S15.523 0 10 0 0 4.477 0 10s4.477 10 10 10"></path><path fill="#FFE62E" d="M15.9 10.767c-.433-.367-1.2-.3-1.733-.267.6-.3 1.533-.9 2.166-.367-.466-.633-1.5-.433-2.133-.3.533-.4 1.367-1.1 2.067-.7-.567-.566-1.567-.2-2.167.067.467-.467 1.167-1.3 1.933-1.033-.633-.467-1.566.033-2.133.4.367-.534.967-1.467 1.767-1.3-.7-.367-1.534.3-2.034.7.3-.6.7-1.6 1.534-1.567-.767-.233-1.467.533-1.9 1.033.2-.633.433-1.7 1.266-1.8-.766-.133-1.366.734-1.7 1.3.1-.666.167-1.766.967-1.966-.8 0-1.233.966-1.5 1.566 0-.666-.1-1.766.667-2.1-.767.134-1.067 1.134-1.234 1.767-.1-.667-.366-1.733.3-2.167-.766.234-.866 1.3-.933 1.934-.2-.634-.633-1.634-.033-2.2-.7.366-.667 1.4-.634 2.066-.3-.6-.9-1.533-.366-2.166-.634.466-.434 1.5-.3 2.133-.4-.533-1.1-1.367-.7-2.067-.567.567-.2 1.534.066 2.167-.466-.467-1.3-1.167-1.033-1.933-.467.633.033 1.566.4 2.133-.533-.367-1.467-.967-1.3-1.767-.367.7.3 1.534.733 2.034-.6-.3-1.6-.7-1.566-1.534-.234.734.533 1.467 1.033 1.9-.633-.2-1.7-.433-1.8-1.266-.133.766.733 1.366 1.3 1.7-.667-.1-1.767-.167-1.967-.967 0 .8.967 1.233 1.567 1.5-.667 0-1.767.1-2.1-.667.133.767 1.133 1.067 1.767 1.234-.667.1-1.734.366-2.167-.3.233.766 1.3.866 1.933.933-.633.2-1.633.633-2.2.033.367.7 1.4.667 2.067.634-.6.3-1.533.9-2.167.366.467.634 1.5.434 2.134.3-.534.4-1.367 1.1-2.067.7.567.567 1.533.2 2.167-.066-.467.466-1.167 1.3-1.934 1.033.634.467 1.567-.033 2.134-.4-.367.533-.967 1.467-1.767 1.3.7.367 1.533-.3 2.033-.733-.3.6-.7 1.6-1.533 1.566.767.234 1.467-.533 1.9-1.033-.2.633-.433 1.7-1.267 1.8.767.133 1.367-.767 1.7-1.3-.1.667-.166 1.767-.966 1.967.8 0 1.233-.967 1.5-1.567 0 .667.1 1.767-.667 2.1.767-.133 1.067-1.133 1.233-1.767.1.667.367 1.734-.3 2.167.767-.233.867-1.3.934-1.933.2.633.633 1.633.033 2.2.7-.367.667-1.4.633-2.067.3.6.9 1.533.367 2.167.633-.467.433-1.5.3-2.134.4.534 1.1 1.367.7 2.067.567-.567.2-1.533-.067-2.167.467.467 1.3 1.167 1.034 1.934.466-.634-.034-1.567-.4-2.134.533.367 1.466.967 1.3 1.767.366-.7-.3-1.533-.7-2.033.6.3 1.6.7 1.566 1.533.234-.767-.533-1.467-1.033-1.9.633.2 1.7.433 1.8 1.267.133-.8-.767-1.367-1.3-1.7.667.1 1.733.166 1.967.966 0-.8-.967-1.233-1.567-1.5.667 0 1.767-.1 2.1.667-.133-.8-1.133-1.067-1.767-1.233.667-.1 1.734-.367 2.167.3-.233-.734-1.3-.9-1.933-.934.633-.233 1.633-.633 2.2-.033a1.746 1.746 0 0 0-.367-.333M10 14c-1.5 0-2.9-.867-3.567-2.2-.7-1.333-.533-3 .367-4.233.9-1.2 2.433-1.8 3.933-1.534C12.2 6.3 13.4 7.4 13.833 8.8 14.6 11.367 12.633 14 10 14"></path><path fill="#FFE62E" d="M7.6 7.667C7 8.267 6.667 9.1 6.667 10c0 .667.2 1.3.533 1.833a8.186 8.186 0 0 1 1.567-3.3A5.058 5.058 0 0 0 7.6 7.667m2.167-.2a8.255 8.255 0 0 0-.867-.634c-.133.034-.267.1-.4.167.333.2.667.467 1 .7.067-.033.167-.133.267-.233m-.5.5c-.334-.3-.7-.534-1.1-.767-.1.067-.2.167-.3.233.4.234.8.5 1.133.834.067-.1.167-.2.267-.3m-.234.766a8.5 8.5 0 0 0-1.566 3.434c.166.166.333.333.533.5a7.49 7.49 0 0 1 1.333-3.6c-.1-.134-.2-.234-.3-.334m1.634.334C11.4 10.1 11.9 11.333 12 12.667c.2-.134.367-.3.533-.5-.233-1.267-.8-2.434-1.566-3.434-.1.1-.2.2-.3.334m-.934 0c.1.133.2.233.267.366.1-.133.167-.233.267-.366-.1-.1-.167-.234-.267-.334-.1.1-.2.2-.267.334m.967-2.334c-.233-.033-.467-.066-.7-.066-.233 0-.467.033-.7.066.233.167.5.334.7.534.233-.2.467-.367.7-.534"></path><path fill="#FFE62E" d="m9.833 9.733-.3-.4c-.7 1.034-1.166 2.234-1.266 3.534l.6.3v-.1c.033-1.234.366-2.367.966-3.334m.167-1.5.3-.3c-.1-.1-.2-.2-.3-.266-.1.1-.2.166-.3.266zm.5.567c.1-.1.2-.233.3-.333-.1-.1-.167-.2-.267-.3l-.3.3c.067.133.167.233.267.333m-1-.6c-.1.1-.167.2-.267.3.1.1.2.2.3.333.1-.1.167-.233.267-.333-.1-.133-.2-.233-.3-.3"></path><path fill="#FFE62E" d="M10 10.033c-.5.9-.8 1.934-.8 3v.2a3.286 3.286 0 0 0 1.6 0v-.2c0-1.1-.3-2.133-.8-3m.2-.3c.6.967.933 2.1.933 3.334v.1c.2-.067.434-.167.6-.3-.1-1.3-.533-2.5-1.266-3.534-.1.1-.2.234-.267.4m.333-2c.3-.266.634-.5 1-.7a2.036 2.036 0 0 0-.4-.166c-.3.2-.6.4-.866.633a1.9 1.9 0 0 0 .266.233m2.267 4.1A3.467 3.467 0 0 0 13.333 10c0-.9-.366-1.733-.933-2.333-.433.233-.833.5-1.167.833a9.036 9.036 0 0 1 1.567 3.333M11 8.267c.333-.3.733-.6 1.133-.834-.1-.1-.2-.166-.3-.233-.4.233-.733.467-1.1.767.1.1.2.2.267.3"></path></svg>