<svg xmlns="http://www.w3.org/2000/svg" fill="none" viewBox="0 0 20 20" class="_countryFlag_mdqmt_115"><path fill="#00AFCA" d="M10 20c5.523 0 10-4.477 10-10S15.523 0 10 0 0 4.477 0 10s4.477 10 10 10"></path><path fill="#FFE62E" d="M18.233 10.367c-.233-.134-.5.033-.5.266-.1 1.634-2.966 2.067-4.333 2.067-1.367.033-4.3-.467-4.4-2.067 0-.233-.267-.366-.5-.266-.7.366-.933 1.066-.767 1.766.3 1.267 1.867 2.167 3.2 2.567-.1.233-.133.467-.166.7-.034.267.366.367.566.2.767-.567 1.967-.8 2.967-.8.433 0 .433-.6 0-.6-.9 0-1.867.167-2.667.533.3-.7 1-1.4 1.767-1.433h.033c1.6.033 4.167-.533 4.834-2.033.1.266.1.566 0 .833-.334 1.067-1.5 1.5-2.6 1.8-.4.1-.234.7.166.567 1.4-.367 2.5-.934 3.067-2.2.267-.667 0-1.467-.667-1.9M11.2 14.133c-1.1-.3-1.933-.833-2.6-1.7-.267-.366-.367-.866-.133-1.233.5 1.167 2.133 1.767 3.6 1.967-.334.266-.634.6-.867.966"></path><path fill="#FFE62E" d="M13.333 10.9a2.567 2.567 0 1 0 0-5.133 2.567 2.567 0 0 0 0 5.133M13.333 5.433c.167 0 .2-.1.2-.2 0-.166-.2-.866-.2-.866s-.2.733-.2.866c0 .1.034.2.2.2M14.593 5.54c.137.068.24 0 .274-.102.068-.136.136-.92.136-.92s-.479.613-.547.75c0 .102 0 .238.137.272m1.642 3.881c-.069.136 0 .239.102.273.137.068.924.136.924.136s-.616-.477-.753-.545c-.102 0-.24 0-.273.136m-3.9 1.634c-.136-.068-.239 0-.273.103-.068.136-.137.919-.137.919s.48-.613.547-.75c0-.101 0-.238-.136-.272m-1.64-3.88c.067-.137 0-.24-.104-.273-.136-.068-.923-.136-.923-.136s.616.476.753.544c.102 0 .239 0 .273-.136m4.89-.988c.102.102.24.068.308 0 .102-.102.478-.783.478-.783s-.684.374-.786.476c-.103.102-.103.205 0 .307m0 4.222c-.103.102-.069.204 0 .306.102.102.786.477.786.477s-.376-.681-.478-.783c-.103-.103-.206-.103-.308 0m-4.241 0a.216.216 0 0 0-.308 0c-.102.102-.479.783-.479.783s.684-.375.787-.477c.103-.102.103-.204 0-.306m0-4.222a.214.214 0 0 0 0-.307c-.103-.102-.787-.476-.787-.476s.377.68.48.783c.102.102.204.102.307 0m4.89.987c.069.136.172.17.274.102.137-.068.753-.544.753-.544s-.787.102-.924.136c-.102.068-.17.136-.102.306m-1.641 3.881c-.137.069-.171.17-.103.273.069.136.548.749.548.749s-.103-.783-.137-.92c-.069-.102-.137-.17-.308-.102m-3.899-1.634c-.068-.136-.17-.17-.274-.102-.136.068-.752.545-.752.545s.787-.102.924-.136c.102-.068.17-.137.102-.307m1.642-3.881c.136-.068.17-.17.102-.272-.068-.137-.547-.75-.547-.75s.103.75.137.92c.068.102.137.17.308.102m1.71-.17a.186.186 0 0 0 .24-.17c.033-.137-.035-.92-.035-.92s-.342.681-.376.851c-.034.102.034.205.17.239m2.36 3.506a.186.186 0 0 0 .17.239c.137.034.924-.034.924-.034s-.684-.34-.855-.375c-.103-.034-.205.034-.24.17m-3.523 2.35a.186.186 0 0 0-.24.17c-.034.136.035.92.035.92s.342-.682.376-.852c.034-.102-.034-.204-.171-.238m-2.36-3.507c.034-.17-.068-.238-.17-.238-.138-.034-.924.034-.924.034s.684.34.855.374c.102.034.205-.034.24-.17m4.617-1.907c.137.068.24.034.308-.068.103-.136.308-.851.308-.851s-.582.51-.684.613c-.069.102-.069.238.068.306m.821 4.154c-.068.136-.034.238.068.306.137.102.855.307.855.307s-.513-.579-.615-.681c-.103-.068-.24-.068-.308.068m-4.172.817c-.137-.068-.24-.034-.308.068-.069.102-.308.851-.308.851s.581-.51.684-.613c.068-.102.068-.238-.068-.306m-.821-4.154c.068-.136.034-.238-.069-.306-.102-.068-.855-.306-.855-.306s.513.578.616.68c.102.069.24.069.308-.068m4.993 0c.103.137.205.137.308.068.137-.102.615-.68.615-.68s-.752.238-.855.306c-.102.102-.17.204-.068.306m-.82 4.154c-.138.102-.138.204-.07.306.103.137.685.613.685.613s-.24-.749-.308-.85c-.103-.103-.205-.171-.308-.069m-4.173-.817c-.103-.136-.206-.136-.308-.068-.137.102-.616.68-.616.68s.753-.237.855-.306c.103-.102.171-.204.069-.306m.82-4.154c.137-.102.137-.204.069-.306-.103-.136-.684-.613-.684-.613s.24.749.308.851c.102.102.205.17.308.068m4.618 1.907c.034.136.136.204.239.17.137-.034.855-.374.855-.374s-.787-.068-.923-.034c-.137 0-.206.068-.171.238m-2.36 3.507c-.137.034-.205.136-.171.238.034.136.376.851.376.851s.068-.783.034-.92c0-.135-.068-.203-.24-.17m-3.523-2.35c-.034-.136-.137-.204-.24-.17-.136.034-.854.375-.854.375s.786.068.923.034c.137 0 .205-.068.171-.239m2.36-3.506c.137-.034.205-.137.17-.239-.033-.136-.375-.85-.375-.85s-.069.782-.035.918c0 .137.069.205.24.17m-8.14 11.303h-.376v1.26h-.752c.376.306.752.545 1.162.817v-2.077zM4.367 2.067v1.26h.376V1.25c-.41.238-.786.51-1.163.817zm-.855.034c-.103.068-.205.17-.308.273L4.23 4.587h-.855v-1.26H3v1.26h-.855l.992-2.145a5.98 5.98 0 0 0-.787.817l-.787 1.668 1.334 2.86h-.855v-1.26h-.376v3.337h.376V8.468h.89L2.418 10l.513 1.498h-.89v-1.396h-.376v3.337h.376v-1.26h.855l-1.333 2.86.786 1.668c.24.273.513.545.787.817l-.992-2.145h.855v1.26h.376v-1.26h.855l-1.026 2.213c.103.103.205.17.308.273l1.3-2.826-1.334-2.86h.855v1.26h.376v-3.337h-.376v1.396h-.89L3.958 10l-.513-1.498h.889v1.396h.376V6.56h-.376v1.26h-.855l1.334-2.86zm.752 12.632H3.41v-1.26h-.376v1.26h-.89l1.061-2.248zm-1.06-3.644-.273-.783h.547zm.274-1.395H2.93l.273-.783zm-.274-2.145-1.06-2.247h.855v1.26h.376v-1.26h.855z"></path></svg>