<svg width="22" height="22" viewBox="0 0 22 22" fill="none" xmlns="http://www.w3.org/2000/svg">
<path fill-rule="evenodd" clip-rule="evenodd" d="M8.52708 0.907236C9.31964 0.713712 10.1478 0.611111 11 0.611111C16.7376 0.611111 21.3889 5.26237 21.3889 11C21.3889 11.8522 21.2863 12.6804 21.0928 13.4729C21.6662 14.3412 22 15.3816 22 16.5C22 19.5376 19.5376 22 16.5 22C15.3816 22 14.3412 21.6662 13.4729 21.0928C12.6804 21.2863 11.8522 21.3889 11 21.3889C5.26237 21.3889 0.611111 16.7376 0.611111 11C0.611111 10.1478 0.713712 9.31964 0.907236 8.52708C0.333811 7.65882 0 6.61839 0 5.5C0 2.46243 2.46243 0 5.5 0C6.61839 0 7.65882 0.333811 8.52708 0.907236ZM12.8385 10.1108C13.2949 10.2469 13.7298 10.4466 14.1306 10.7039C14.54 10.973 14.8813 11.3345 15.1277 11.758C15.3828 12.2271 15.512 12.7543 15.5028 13.2882C15.5242 13.9769 15.319 14.6536 14.9187 15.2144C14.4975 15.79 13.9194 16.232 13.2535 16.4875C12.5372 16.7735 11.7703 16.9112 10.9993 16.8926C10.0919 16.9181 9.19179 16.7236 8.37597 16.3255C7.83979 16.0433 7.37943 15.6361 7.03382 15.1384C6.68801 14.6599 6.49425 14.0884 6.47776 13.4982C6.47776 13.233 6.58313 12.9786 6.77069 12.791C6.95825 12.6035 7.21263 12.4981 7.47787 12.4981C7.74312 12.4981 7.9975 12.6035 8.18506 12.791C8.37261 12.9786 8.47798 13.233 8.47798 13.4982C8.49852 13.6811 8.56835 13.855 8.68 14.0013C8.83908 14.2299 9.05024 14.4174 9.29607 14.5483C9.82831 14.797 10.4122 14.9149 10.9993 14.8924C11.5069 14.9089 12.0126 14.8232 12.4864 14.6403C12.8043 14.5262 13.0827 14.3231 13.2885 14.0553C13.4409 13.8426 13.5164 13.5844 13.5025 13.3232C13.513 13.1214 13.4725 12.9201 13.3845 12.7381C13.2937 12.589 13.1694 12.463 13.0215 12.3701C12.7843 12.2206 12.5275 12.1048 12.2584 12.0261C12.0394 11.959 11.8003 11.894 11.5523 11.83L11.5343 11.828C11.5232 11.8243 11.5077 11.8206 11.494 11.8173C11.4891 11.8162 11.4845 11.8151 11.4803 11.814C11.3183 11.773 11.1563 11.732 10.9833 11.694C10.5412 11.599 10.2352 11.522 10.0432 11.464C10.0388 11.4629 10.0351 11.4603 10.0313 11.4578C10.0281 11.4556 10.0248 11.4534 10.0212 11.452C9.57709 11.3443 9.14046 11.208 8.71401 11.0439C8.14964 10.8176 7.65397 10.4481 7.27585 9.97183C6.88418 9.45784 6.67956 8.82563 6.69579 8.17963C6.69592 7.53075 6.90803 6.89967 7.29985 6.38243C7.70893 5.86225 8.25518 5.46668 8.87703 5.24031C9.56462 4.9932 10.2918 4.87455 11.0223 4.89027C11.5969 4.88392 12.1693 4.96347 12.7204 5.1263C13.1979 5.26552 13.6452 5.49241 14.0396 5.79537C14.3809 6.05442 14.6658 6.38045 14.8767 6.75347C14.94 6.86919 14.9797 6.99629 14.9937 7.12744C15.0077 7.25859 14.9956 7.39121 14.9581 7.51766C14.9206 7.64411 14.8584 7.7619 14.7752 7.86424C14.692 7.96658 14.5894 8.05145 14.4733 8.11397C14.3572 8.17649 14.2298 8.21542 14.0986 8.22852C13.9673 8.24162 13.8348 8.22863 13.7086 8.1903C13.5824 8.15197 13.465 8.08906 13.3632 8.00518C13.2614 7.9213 13.1772 7.81812 13.1155 7.70158C13.0302 7.56738 12.9199 7.4509 12.7905 7.35854C12.5903 7.21263 12.3658 7.10358 12.1274 7.03651C11.7679 6.93349 11.3952 6.88429 11.0213 6.89049C10.5381 6.87624 10.0563 6.94942 9.59911 7.10651C9.32731 7.1991 9.08548 7.3632 8.89903 7.58156C8.76583 7.75205 8.69364 7.96228 8.69401 8.17863C8.67766 8.38041 8.73445 8.58134 8.85402 8.74469C9.01741 8.94433 9.22963 9.09833 9.47009 9.19174C9.93666 9.3714 10.4169 9.51321 10.9063 9.61579C11.3163 9.7058 11.6483 9.78581 11.9284 9.86382C12.2484 9.94282 12.5584 10.0258 12.8385 10.1108Z" fill="url(#paint0_linear_1878_50423)"/>
<defs>
<linearGradient id="paint0_linear_1878_50423" x1="8.5" y1="1.5" x2="17.5" y2="23" gradientUnits="userSpaceOnUse">
<stop offset="0" stop-color="#51B6E9"/>
<stop offset="1" stop-color="#4195CF"/>
</linearGradient>
</defs>
</svg>
