<svg xmlns="http://www.w3.org/2000/svg" fill="none" viewBox="0 0 20 20" class="_countryFlag_mdqmt_115"><path fill="#EEE" d="M0 10c0 2.074.568 4.008 1.536 5.625h16.928A10.94 10.94 0 0 0 20 10a10.94 10.94 0 0 0-1.536-5.625H1.536A10.94 10.94 0 0 0 0 10"></path><path fill="#D80128" d="M18.438 4.375C16.677 1.75 13.554 0 10 0 6.446 0 3.323 1.75 1.563 4.375z"></path><path fill="#6CA544" d="M1.563 15.625C3.323 18.25 6.446 20 10 20c3.554 0 6.677-1.75 8.438-4.375z"></path><path fill="#EFA400" d="M12.1 11.467c-.2.166-.433.266-.7.3-.633.066-1.2-.4-1.266-1V9.9c0-.2.166-.367.4-.367a.41.41 0 0 1 .333.167c.167-.467-.1-.933-.567-1.1-.466-.167-.966.1-1.133.567a.736.736 0 0 0 0 .533c.1-.167.334-.233.534-.133.1.066.2.166.2.3v.866c-.067.6-.634 1.067-1.267 1a1.326 1.326 0 0 1-.7-.3c-.233.6-.933.9-1.567.634a1 1 0 0 1-.266-.134c.1 1.067 1.766.867 1.9-.2.533.9 1.666.634 2-.466.333 1.1 1.5 1.333 2 .466.133 1.034 1.8 1.267 1.9.2-.067.067-.167.1-.267.134-.6.3-1.3 0-1.533-.6M9.335 9.3a.638.638 0 0 1 .567-.533c.366-.034.7.2.733.533a.634.634 0 0 0-.667.267c-.1-.2-.366-.3-.633-.267"></path><path fill="#EFA400" d="M8.734 12.667s-.133-.067-.367-.034a.47.47 0 0 0-.266-.333c-.1.1-.167.3-.134.433a1.228 1.228 0 0 0-.333.134c.4.366.867.266 1.1-.2m1.833-.067s-.1-.1-.366-.1c0-.167-.134-.3-.2-.4-.1.1-.2.267-.2.4-.167 0-.367.1-.367.1.333.467.833.433 1.133 0m1.334-.333c-.134.066-.234.233-.267.366-.167-.033-.367.034-.367.034.267.5.734.566 1.1.166 0 0-.1-.1-.333-.133.033-.167-.067-.333-.133-.433"></path><path fill="#EFA400" d="m6.967 13.467.167.533c1.9-.533 3.867-.533 5.766 0l.167-.533c-2-.567-4.133-.567-6.1 0m2.767-6.634-.167.5.434-.333.433.333-.167-.5.467-.333h-.567l-.166-.5-.167.5h-.567zM7.6 7.367l-.2.5.466-.3.434.3-.167-.5.467-.3h-.567l-.167-.5-.166.5h-.567zm-1.567 1.5-.2.533.467-.333.433.333-.167-.533.467-.3h-.567l-.166-.5-.167.5h-.567zm-.3 2.266.433.3-.166-.5.466-.3h-.566l-.167-.5-.167.5h-.566l.433.3-.167.5zm6.133-3.766-.167.5.434-.3.466.3-.2-.5.467-.3H12.3l-.166-.5-.167.5H11.4zm1.567 1.5-.167.533.434-.333.466.333-.2-.533.467-.3h-.567l-.167-.5-.166.5h-.567zm1.133 2.066.434-.3h-.567l-.167-.5-.166.5h-.567l.466.3-.166.5.433-.3.467.3z"></path></svg>