<svg width="26" height="26" viewBox="0 0 26 26" fill="none" xmlns="http://www.w3.org/2000/svg">
<g clip-path="url(#clip0_2531_651)">
<path d="M13 26C20.1797 26 26 20.1797 26 13C26 5.8203 20.1797 0 13 0C5.8203 0 0 5.8203 0 13C0 20.1797 5.8203 26 13 26Z" fill="url(#paint0_linear_2531_651)"/>
<path fill-rule="evenodd" clip-rule="evenodd" d="M5.88362 12.8634C9.67339 11.2123 12.2005 10.1238 13.4649 9.59783C17.0752 8.09621 17.8253 7.83537 18.3143 7.82675C18.4218 7.82486 18.6623 7.85151 18.8181 7.97789C18.9496 8.08461 18.9858 8.22877 19.0031 8.32995C19.0204 8.43113 19.042 8.66162 19.0248 8.84172C18.8292 10.8973 17.9826 15.8857 17.552 18.188C17.3697 19.1622 17.0109 19.4889 16.6635 19.5208C15.9086 19.5903 15.3353 19.0219 14.6042 18.5426C13.46 17.7926 12.8136 17.3257 11.703 16.5938C10.4195 15.748 11.2515 15.2832 11.983 14.5234C12.1744 14.3246 15.5007 11.2991 15.5651 11.0247C15.5731 10.9903 15.5806 10.8624 15.5046 10.7948C15.4286 10.7273 15.3164 10.7504 15.2354 10.7687C15.1207 10.7948 13.2928 12.0029 9.75194 14.3931C9.23311 14.7494 8.76318 14.923 8.34214 14.9139C7.87797 14.9038 6.9851 14.6514 6.32134 14.4357C5.50721 14.171 4.86016 14.0311 4.91651 13.5817C4.94585 13.3476 5.26823 13.1082 5.88362 12.8634Z" fill="white"/>
</g>
<defs>
<linearGradient id="paint0_linear_2531_651" x1="13" y1="0" x2="13" y2="25.8072" gradientUnits="userSpaceOnUse">
<stop offset="0" stop-color="#2AABEE"/>
<stop offset="1" stop-color="#229ED9"/>
</linearGradient>
<clipPath id="clip0_2531_651">
<rect width="26" height="26" fill="white"/>
</clipPath>
</defs>
</svg>
