<svg xmlns="http://www.w3.org/2000/svg" fill="none" viewBox="0 0 20 20" class="_countryFlag_mdqmt_115"><path fill="#338AF3" d="M10 0C5.733 0 2.103 2.729.625 6.563h18.75C17.896 2.729 14.268 0 10 0"></path><path fill="#6CA544" d="M10 20c4.268 0 7.897-2.729 9.375-6.562H.625C2.103 17.27 5.733 20 10 20"></path><path fill="#EEE" d="M20 10a8.76 8.76 0 0 0-.467-2.812H.467A8.76 8.76 0 0 0 0 10c0 .969.167 1.938.467 2.813h19.066A8.76 8.76 0 0 0 20 10"></path><path fill="#D80128" d="M19.3 6.333c.033.1.1.234.133.334.034.1.067.233.1.333"></path><path fill="#D80128" d="M19.433 6.667c-.033-.1-.1-.234-.133-.334H.7c-.033.1-.1.234-.133.334-.034.1-.067.233-.1.333h19.066c-.033-.1-.066-.233-.1-.333M.567 13.333c.033.1.1.234.133.334h18.6c.033-.1.1-.234.133-.334.034-.1.067-.233.1-.333H.467c.033.1.066.233.1.333"></path><path fill="#fff" d="M5.934 5.363c-.819 0-1.467-.713-1.467-1.613s.648-1.612 1.467-1.612c.205 0 .376.037.546.112a1.654 1.654 0 0 0-1.024-.375c-.955 0-1.706.825-1.706 1.875s.75 1.875 1.706 1.875c.376 0 .751-.15 1.024-.375-.17.075-.34.112-.546.112m1.468-.788.136.412h.376l-.307.226.102.412-.307-.263-.307.263.136-.412-.307-.226H7.3zm1.467 0 .103.412h.41l-.308.226.103.412-.308-.263-.307.263.103-.412-.307-.226h.375zm1.468 0 .102.412h.376l-.307.226.136.412-.307-.263-.341.263.136-.412-.307-.226h.376zm1.434 0 .136.412h.375l-.307.226.103.412-.307-.263-.308.263.103-.412-.308-.226h.41zm1.467 0 .102.412h.41l-.341.226.136.412-.307-.263-.307.263.102-.412-.307-.226h.375zM8.87 3.225l.103.413h.41l-.308.224.103.413-.308-.263-.307.263.103-.413-.307-.224h.375zm1.468 0 .102.413h.376l-.307.224.136.413-.307-.263-.341.263.136-.413-.307-.224h.376zm1.434 0 .136.413h.375l-.307.224.103.413-.307-.263-.308.263.103-.413-.308-.224h.41zm1.467 0 .102.413h.41l-.341.224.136.413-.307-.263-.307.263.102-.413-.307-.224h.375zm-2.901-1.35.102.413h.376l-.307.225.136.412-.307-.262-.341.262.136-.412-.307-.225h.376zm1.434 0 .136.413h.375l-.307.225.103.412-.307-.262-.308.262.103-.412-.308-.225h.41zm1.467 0 .102.413h.41l-.341.225.136.412-.307-.262-.307.262.102-.412-.307-.225h.375z"></path></svg>