<svg width="24" height="24" viewBox="0 0 24 24" fill="none" xmlns="http://www.w3.org/2000/svg">
  <path d="M21.9783 11.41C21.6383 5.60995 16.3683 1.13996 10.2983 2.13996C6.11833 2.82996 2.76834 6.21994 2.11834 10.3999C1.73834 12.8199 2.23836 15.1099 3.32836 16.9999L2.43835 20.3099C2.23835 21.0599 2.92833 21.7399 3.66833 21.5299L6.92834 20.63C8.40834 21.5 10.1383 21.9999 11.9883 21.9999C17.6283 21.9999 22.3083 17.03 21.9783 11.41ZM16.8783 15.7199C16.7883 15.8999 16.6783 16.07 16.5383 16.23C16.2883 16.5 16.0183 16.7 15.7183 16.82C15.4183 16.95 15.0883 17.01 14.7383 17.01C14.2283 17.01 13.6783 16.89 13.1083 16.64C12.5283 16.39 11.9584 16.0599 11.3884 15.6499C10.8084 15.2299 10.2683 14.7599 9.74834 14.2499C9.22834 13.7299 8.76832 13.1799 8.34832 12.6099C7.93832 12.0399 7.60834 11.4699 7.36834 10.8999C7.12834 10.3299 7.00835 9.77996 7.00835 9.25996C7.00835 8.91996 7.06835 8.58996 7.18835 8.28996C7.30835 7.97996 7.49836 7.69996 7.76836 7.44996C8.08836 7.12996 8.43834 6.97996 8.80834 6.97996C8.94834 6.97996 9.08832 7.00995 9.21832 7.06995C9.34832 7.12995 9.46834 7.21995 9.55834 7.34995L10.7183 8.98994C10.8083 9.11994 10.8783 9.22994 10.9183 9.33994C10.9683 9.44994 10.9883 9.54994 10.9883 9.64994C10.9883 9.76994 10.9483 9.88996 10.8783 10.01C10.8083 10.13 10.7183 10.2499 10.5983 10.3699L10.2183 10.7699C10.1583 10.8299 10.1384 10.8899 10.1384 10.9699C10.1384 11.0099 10.1483 11.0499 10.1583 11.0899C10.1783 11.1299 10.1884 11.16 10.1984 11.1899C10.2884 11.36 10.4483 11.5699 10.6683 11.8299C10.8983 12.0899 11.1384 12.3599 11.3984 12.6199C11.6684 12.8899 11.9284 13.1299 12.1984 13.3599C12.4584 13.5799 12.6783 13.73 12.8483 13.82C12.8783 13.83 12.9083 13.8499 12.9383 13.8599C12.9783 13.8799 13.0184 13.88 13.0684 13.88C13.1584 13.88 13.2184 13.85 13.2784 13.79L13.6583 13.41C13.7883 13.28 13.9084 13.19 14.0184 13.13C14.1384 13.06 14.2483 13.0199 14.3783 13.0199C14.4783 13.0199 14.5783 13.0399 14.6883 13.0899C14.7983 13.1399 14.9183 13.2 15.0383 13.29L16.6984 14.4699C16.8284 14.5599 16.9183 14.67 16.9783 14.79C17.0283 14.92 17.0583 15.0399 17.0583 15.1799C16.9983 15.3499 16.9583 15.5399 16.8783 15.7199Z" fill="#31BC69"/>
</svg>
